<mxfile host="app.diagrams.net" agent="Mozilla/5.0 (Macintosh; Intel Mac OS X 10_15_7) AppleWebKit/537.36 (KHTML, like Gecko) Chrome/130.0.0.0 Safari/537.36" version="24.8.6">
  <diagram name="BIRDSRP_SYSTEM_BLOCK_DIAGRAM" id="RyTt8miqXWO4tbNBZ-sP">
    <mxGraphModel dx="2507" dy="858" grid="1" gridSize="10" guides="1" tooltips="1" connect="1" arrows="1" fold="1" page="1" pageScale="1" pageWidth="1100" pageHeight="850" math="0" shadow="0">
      <root>
        <mxCell id="0" />
        <mxCell id="1" parent="0" />
        <mxCell id="8Y4_HuB13osn8gQd0_Ju-176" value="&lt;font style=&quot;font-size: 30px;&quot;&gt;BPB&lt;/font&gt;" style="whiteSpace=wrap;html=1;rounded=0;shadow=0;comic=0;labelBackgroundColor=none;strokeWidth=1;fontFamily=Verdana;fontSize=12;align=left;labelPosition=right;verticalLabelPosition=bottom;verticalAlign=top;spacing=-50;spacingTop=12;spacingLeft=-21;" vertex="1" parent="1">
          <mxGeometry x="-140" y="40.93" width="170" height="219.07" as="geometry" />
        </mxCell>
        <mxCell id="8Y4_HuB13osn8gQd0_Ju-1" value="&lt;font style=&quot;font-size: 30px;&quot;&gt;OBC&lt;/font&gt;" style="whiteSpace=wrap;html=1;rounded=0;shadow=0;comic=0;labelBackgroundColor=none;strokeWidth=1;fontFamily=Verdana;fontSize=12;align=left;labelPosition=right;verticalLabelPosition=bottom;verticalAlign=top;spacing=-50;spacingTop=12;spacingLeft=-96;" vertex="1" parent="1">
          <mxGeometry x="250" y="100.93" width="570" height="520" as="geometry" />
        </mxCell>
        <mxCell id="8Y4_HuB13osn8gQd0_Ju-2" value="MAIN FM" style="shape=rect;dashed=0;shadow=0;html=1;whiteSpace=wrap;rotation=0;rounded=0;comic=0;labelBackgroundColor=none;strokeWidth=1;fontFamily=Verdana;fontSize=12;align=center;fillColor=#d5e8d4;strokeColor=#82b366;" vertex="1" parent="1">
          <mxGeometry x="290" y="154.31" width="100" height="50" as="geometry" />
        </mxCell>
        <mxCell id="8Y4_HuB13osn8gQd0_Ju-3" value="MAIN PIC" style="shape=rect;dashed=0;shadow=0;html=1;whiteSpace=wrap;rounded=0;comic=0;labelBackgroundColor=none;strokeWidth=1;fontFamily=Verdana;fontSize=12;align=center;fillColor=#dae8fc;strokeColor=#6c8ebf;" vertex="1" parent="1">
          <mxGeometry x="340" y="250.93" width="100" height="50" as="geometry" />
        </mxCell>
        <mxCell id="8Y4_HuB13osn8gQd0_Ju-4" value="COM PIC" style="shape=rect;dashed=0;shadow=0;html=1;whiteSpace=wrap;rounded=0;comic=0;labelBackgroundColor=none;strokeWidth=1;fontFamily=Verdana;fontSize=12;align=center;fillColor=#dae8fc;strokeColor=#6c8ebf;" vertex="1" parent="1">
          <mxGeometry x="630" y="250.93" width="106" height="50" as="geometry" />
        </mxCell>
        <mxCell id="8Y4_HuB13osn8gQd0_Ju-5" value="MUX" style="shape=trapezoid;perimeter=trapezoidPerimeter;whiteSpace=wrap;html=1;fixedSize=1;rotation=90;size=14;" vertex="1" parent="1">
          <mxGeometry x="476" y="334.25" width="50" height="23.37" as="geometry" />
        </mxCell>
        <mxCell id="8Y4_HuB13osn8gQd0_Ju-6" value="" style="triangle;whiteSpace=wrap;html=1;rotation=90;" vertex="1" parent="1">
          <mxGeometry x="1055" y="61" width="60" height="80" as="geometry" />
        </mxCell>
        <mxCell id="8Y4_HuB13osn8gQd0_Ju-7" value="" style="triangle;whiteSpace=wrap;html=1;rotation=90;" vertex="1" parent="1">
          <mxGeometry x="1150" y="61" width="60" height="80" as="geometry" />
        </mxCell>
        <mxCell id="8Y4_HuB13osn8gQd0_Ju-8" value="Shared MSN&amp;nbsp;&lt;div&gt;FM&lt;/div&gt;" style="shape=rect;dashed=0;shadow=0;html=1;whiteSpace=wrap;rotation=0;rounded=0;comic=0;labelBackgroundColor=none;strokeWidth=1;fontFamily=Verdana;fontSize=12;align=center;fillColor=#d5e8d4;strokeColor=#82b366;" vertex="1" parent="1">
          <mxGeometry x="610" y="154.31" width="100" height="50" as="geometry" />
        </mxCell>
        <mxCell id="8Y4_HuB13osn8gQd0_Ju-9" value="Shared COM&amp;nbsp;&lt;div&gt;FM&lt;/div&gt;" style="shape=rect;dashed=0;shadow=0;html=1;whiteSpace=wrap;rotation=0;rounded=0;comic=0;labelBackgroundColor=none;strokeWidth=1;fontFamily=Verdana;fontSize=12;align=center;fillColor=#d5e8d4;strokeColor=#82b366;" vertex="1" parent="1">
          <mxGeometry x="540" y="320.94" width="100" height="50" as="geometry" />
        </mxCell>
        <mxCell id="8Y4_HuB13osn8gQd0_Ju-10" value="MUX" style="shape=trapezoid;perimeter=trapezoidPerimeter;whiteSpace=wrap;html=1;fixedSize=1;rotation=90;size=10;" vertex="1" parent="1">
          <mxGeometry x="490" y="167.63" width="50" height="23.37" as="geometry" />
        </mxCell>
        <mxCell id="8Y4_HuB13osn8gQd0_Ju-11" value="FAB PIC" style="shape=rect;dashed=0;shadow=0;html=1;whiteSpace=wrap;rotation=0;rounded=0;comic=0;labelBackgroundColor=none;strokeWidth=1;fontFamily=Verdana;fontSize=12;align=center;fillColor=#dae8fc;strokeColor=#6c8ebf;" vertex="1" parent="1">
          <mxGeometry x="120" y="250.93" width="100" height="50" as="geometry" />
        </mxCell>
        <mxCell id="8Y4_HuB13osn8gQd0_Ju-12" value="" style="endArrow=classic;html=1;rounded=0;fontSize=12;startSize=8;endSize=8;curved=1;exitX=1;exitY=0.25;exitDx=0;exitDy=0;entryX=0;entryY=0.25;entryDx=0;entryDy=0;startArrow=classic;startFill=1;" edge="1" parent="1" source="8Y4_HuB13osn8gQd0_Ju-3" target="8Y4_HuB13osn8gQd0_Ju-4">
          <mxGeometry width="50" height="50" relative="1" as="geometry">
            <mxPoint x="430" y="400.93" as="sourcePoint" />
            <mxPoint x="480" y="350.93" as="targetPoint" />
          </mxGeometry>
        </mxCell>
        <mxCell id="8Y4_HuB13osn8gQd0_Ju-13" value="UART" style="edgeLabel;html=1;align=center;verticalAlign=middle;resizable=0;points=[];fontSize=12;" vertex="1" connectable="0" parent="8Y4_HuB13osn8gQd0_Ju-12">
          <mxGeometry x="0.2091" relative="1" as="geometry">
            <mxPoint as="offset" />
          </mxGeometry>
        </mxCell>
        <mxCell id="8Y4_HuB13osn8gQd0_Ju-14" value="" style="endArrow=classic;html=1;rounded=0;fontSize=12;startSize=8;endSize=8;exitX=0.5;exitY=1;exitDx=0;exitDy=0;entryX=0.75;entryY=0;entryDx=0;entryDy=0;edgeStyle=orthogonalEdgeStyle;startArrow=classic;startFill=1;" edge="1" parent="1" source="8Y4_HuB13osn8gQd0_Ju-10" target="8Y4_HuB13osn8gQd0_Ju-3">
          <mxGeometry width="50" height="50" relative="1" as="geometry">
            <mxPoint x="440" y="300.65000000000003" as="sourcePoint" />
            <mxPoint x="550" y="300.65000000000003" as="targetPoint" />
          </mxGeometry>
        </mxCell>
        <mxCell id="8Y4_HuB13osn8gQd0_Ju-15" value="SPI" style="edgeLabel;html=1;align=center;verticalAlign=middle;resizable=0;points=[];fontSize=12;" vertex="1" connectable="0" parent="8Y4_HuB13osn8gQd0_Ju-14">
          <mxGeometry x="-0.26" relative="1" as="geometry">
            <mxPoint as="offset" />
          </mxGeometry>
        </mxCell>
        <mxCell id="8Y4_HuB13osn8gQd0_Ju-16" value="" style="endArrow=classic;html=1;rounded=0;fontSize=12;startSize=8;endSize=8;curved=1;exitX=0.5;exitY=0;exitDx=0;exitDy=0;entryX=0;entryY=0.5;entryDx=0;entryDy=0;" edge="1" parent="1" source="8Y4_HuB13osn8gQd0_Ju-10" target="8Y4_HuB13osn8gQd0_Ju-8">
          <mxGeometry width="50" height="50" relative="1" as="geometry">
            <mxPoint x="526" y="220.93" as="sourcePoint" />
            <mxPoint x="636" y="220.93" as="targetPoint" />
          </mxGeometry>
        </mxCell>
        <mxCell id="8Y4_HuB13osn8gQd0_Ju-17" value="" style="endArrow=classic;html=1;rounded=0;fontSize=12;startSize=8;endSize=8;exitX=0.5;exitY=1;exitDx=0;exitDy=0;entryX=0.5;entryY=1;entryDx=0;entryDy=0;startArrow=classic;startFill=1;edgeStyle=orthogonalEdgeStyle;" edge="1" parent="1" source="8Y4_HuB13osn8gQd0_Ju-3" target="8Y4_HuB13osn8gQd0_Ju-5">
          <mxGeometry width="50" height="50" relative="1" as="geometry">
            <mxPoint x="470" y="293.93" as="sourcePoint" />
            <mxPoint x="580" y="293.93" as="targetPoint" />
          </mxGeometry>
        </mxCell>
        <mxCell id="8Y4_HuB13osn8gQd0_Ju-18" value="SPI" style="edgeLabel;html=1;align=center;verticalAlign=middle;resizable=0;points=[];fontSize=12;" vertex="1" connectable="0" parent="8Y4_HuB13osn8gQd0_Ju-17">
          <mxGeometry x="0.0971" y="1" relative="1" as="geometry">
            <mxPoint as="offset" />
          </mxGeometry>
        </mxCell>
        <mxCell id="8Y4_HuB13osn8gQd0_Ju-19" value="" style="endArrow=classic;html=1;rounded=0;fontSize=12;startSize=8;endSize=8;curved=1;exitX=0.5;exitY=0;exitDx=0;exitDy=0;entryX=0;entryY=0.5;entryDx=0;entryDy=0;" edge="1" parent="1" source="8Y4_HuB13osn8gQd0_Ju-5" target="8Y4_HuB13osn8gQd0_Ju-9">
          <mxGeometry width="50" height="50" relative="1" as="geometry">
            <mxPoint x="480" y="303.93" as="sourcePoint" />
            <mxPoint x="590" y="303.93" as="targetPoint" />
          </mxGeometry>
        </mxCell>
        <mxCell id="8Y4_HuB13osn8gQd0_Ju-20" value="" style="endArrow=classic;html=1;rounded=0;fontSize=12;startSize=8;endSize=8;exitX=0;exitY=0.75;exitDx=0;exitDy=0;entryX=0.25;entryY=1;entryDx=0;entryDy=0;edgeStyle=elbowEdgeStyle;startArrow=classic;startFill=1;" edge="1" parent="1" source="8Y4_HuB13osn8gQd0_Ju-4" target="8Y4_HuB13osn8gQd0_Ju-5">
          <mxGeometry width="50" height="50" relative="1" as="geometry">
            <mxPoint x="490" y="313.93" as="sourcePoint" />
            <mxPoint x="600" y="313.93" as="targetPoint" />
            <Array as="points">
              <mxPoint x="460" y="310.93" />
            </Array>
          </mxGeometry>
        </mxCell>
        <mxCell id="8Y4_HuB13osn8gQd0_Ju-21" value="SPI" style="edgeLabel;html=1;align=center;verticalAlign=middle;resizable=0;points=[];fontSize=12;" vertex="1" connectable="0" parent="8Y4_HuB13osn8gQd0_Ju-20">
          <mxGeometry x="0.2457" y="2" relative="1" as="geometry">
            <mxPoint as="offset" />
          </mxGeometry>
        </mxCell>
        <mxCell id="8Y4_HuB13osn8gQd0_Ju-22" value="" style="endArrow=classic;html=1;rounded=0;fontSize=12;startSize=8;endSize=8;exitX=0.25;exitY=1;exitDx=0;exitDy=0;entryX=0;entryY=0.25;entryDx=0;entryDy=0;startArrow=classic;startFill=1;edgeStyle=orthogonalEdgeStyle;" edge="1" parent="1" source="8Y4_HuB13osn8gQd0_Ju-2" target="8Y4_HuB13osn8gQd0_Ju-3">
          <mxGeometry width="50" height="50" relative="1" as="geometry">
            <mxPoint x="400" y="310.93" as="sourcePoint" />
            <mxPoint x="499" y="355.93" as="targetPoint" />
          </mxGeometry>
        </mxCell>
        <mxCell id="8Y4_HuB13osn8gQd0_Ju-23" value="SPI" style="edgeLabel;html=1;align=center;verticalAlign=middle;resizable=0;points=[];fontSize=12;" vertex="1" connectable="0" parent="8Y4_HuB13osn8gQd0_Ju-22">
          <mxGeometry x="0.0971" y="1" relative="1" as="geometry">
            <mxPoint as="offset" />
          </mxGeometry>
        </mxCell>
        <mxCell id="8Y4_HuB13osn8gQd0_Ju-25" value="&lt;blockquote style=&quot;margin: 0 0 0 40px; border: none; padding: 0px;&quot;&gt;&lt;p style=&quot;line-height: 120%; margin-bottom: 0px; margin-left: 0px; margin-top: 70px;&quot;&gt;ADDNICS COM Board&lt;/p&gt;&lt;/blockquote&gt;" style="shape=rect;dashed=0;shadow=0;html=1;whiteSpace=wrap;rounded=0;comic=0;labelBackgroundColor=none;strokeWidth=1;fontFamily=Verdana;fontSize=12;align=center;fillColor=#f5f5f5;fontColor=#333333;strokeColor=#666666;" vertex="1" parent="1">
          <mxGeometry x="840" y="100.93" width="180" height="90" as="geometry" />
        </mxCell>
        <mxCell id="8Y4_HuB13osn8gQd0_Ju-26" value="OLD&amp;nbsp;&lt;div&gt;TRX&lt;/div&gt;" style="shape=rect;dashed=0;shadow=0;html=1;whiteSpace=wrap;rotation=0;rounded=0;comic=0;labelBackgroundColor=none;strokeWidth=1;fontFamily=Verdana;fontSize=12;align=center;fillColor=#bac8d3;strokeColor=#23445d;" vertex="1" parent="1">
          <mxGeometry x="880" y="117.63" width="100" height="50" as="geometry" />
        </mxCell>
        <mxCell id="8Y4_HuB13osn8gQd0_Ju-27" value="&lt;blockquote style=&quot;margin: 0 0 0 40px; border: none; padding: 0px;&quot;&gt;&lt;p style=&quot;line-height: 120%; margin-bottom: 0px; margin-left: 0px; margin-top: 70px;&quot;&gt;NEW COM Board&lt;/p&gt;&lt;/blockquote&gt;" style="shape=rect;dashed=0;shadow=0;html=1;whiteSpace=wrap;rounded=0;comic=0;labelBackgroundColor=none;strokeWidth=1;fontFamily=Verdana;fontSize=12;align=center;fillColor=#f5f5f5;strokeColor=#666666;fontColor=#333333;" vertex="1" parent="1">
          <mxGeometry x="840" y="210.93" width="180" height="90" as="geometry" />
        </mxCell>
        <mxCell id="8Y4_HuB13osn8gQd0_Ju-28" value="NEW&lt;div&gt;TRX&lt;/div&gt;" style="shape=rect;dashed=0;shadow=0;html=1;whiteSpace=wrap;rotation=0;rounded=0;comic=0;labelBackgroundColor=none;strokeWidth=1;fontFamily=Verdana;fontSize=12;align=center;fillColor=#bac8d3;strokeColor=#23445d;" vertex="1" parent="1">
          <mxGeometry x="880" y="230.93" width="100" height="50" as="geometry" />
        </mxCell>
        <mxCell id="8Y4_HuB13osn8gQd0_Ju-29" value="" style="endArrow=none;html=1;rounded=0;fontSize=12;startSize=8;endSize=8;entryX=1;entryY=0.5;entryDx=0;entryDy=0;startArrow=classic;startFill=1;edgeStyle=orthogonalEdgeStyle;exitX=1;exitY=0.5;exitDx=0;exitDy=0;endFill=0;" edge="1" parent="1" source="8Y4_HuB13osn8gQd0_Ju-26" target="8Y4_HuB13osn8gQd0_Ju-6">
          <mxGeometry width="50" height="50" relative="1" as="geometry">
            <mxPoint x="450" y="273.93" as="sourcePoint" />
            <mxPoint x="640" y="273.93" as="targetPoint" />
          </mxGeometry>
        </mxCell>
        <mxCell id="8Y4_HuB13osn8gQd0_Ju-30" value="OLD UHF" style="edgeLabel;html=1;align=center;verticalAlign=middle;resizable=0;points=[];fontSize=12;" vertex="1" connectable="0" parent="8Y4_HuB13osn8gQd0_Ju-29">
          <mxGeometry x="0.1029" relative="1" as="geometry">
            <mxPoint x="10" y="12" as="offset" />
          </mxGeometry>
        </mxCell>
        <mxCell id="8Y4_HuB13osn8gQd0_Ju-31" value="" style="endArrow=none;html=1;rounded=0;fontSize=12;startSize=8;endSize=8;entryX=1;entryY=0.5;entryDx=0;entryDy=0;startArrow=classic;startFill=1;edgeStyle=orthogonalEdgeStyle;exitX=1;exitY=0.5;exitDx=0;exitDy=0;endFill=0;" edge="1" parent="1" source="8Y4_HuB13osn8gQd0_Ju-28" target="8Y4_HuB13osn8gQd0_Ju-7">
          <mxGeometry width="50" height="50" relative="1" as="geometry">
            <mxPoint x="746" y="273.93" as="sourcePoint" />
            <mxPoint x="940" y="197.93" as="targetPoint" />
            <Array as="points">
              <mxPoint x="1180" y="255.93" />
            </Array>
          </mxGeometry>
        </mxCell>
        <mxCell id="8Y4_HuB13osn8gQd0_Ju-32" value="NEW UHF" style="edgeLabel;html=1;align=center;verticalAlign=middle;resizable=0;points=[];fontSize=12;" vertex="1" connectable="0" parent="8Y4_HuB13osn8gQd0_Ju-31">
          <mxGeometry x="0.22" y="-2" relative="1" as="geometry">
            <mxPoint x="-109" y="-17" as="offset" />
          </mxGeometry>
        </mxCell>
        <mxCell id="8Y4_HuB13osn8gQd0_Ju-33" value="" style="endArrow=classic;html=1;rounded=0;fontSize=12;startSize=8;endSize=8;exitX=1;exitY=0.25;exitDx=0;exitDy=0;startArrow=classic;startFill=1;entryX=0;entryY=0.5;entryDx=0;entryDy=0;edgeStyle=orthogonalEdgeStyle;" edge="1" parent="1" source="8Y4_HuB13osn8gQd0_Ju-4" target="8Y4_HuB13osn8gQd0_Ju-26">
          <mxGeometry width="50" height="50" relative="1" as="geometry">
            <mxPoint x="672" y="310.93" as="sourcePoint" />
            <mxPoint x="672" y="469.93" as="targetPoint" />
          </mxGeometry>
        </mxCell>
        <mxCell id="8Y4_HuB13osn8gQd0_Ju-34" value="UART" style="edgeLabel;html=1;align=center;verticalAlign=middle;resizable=0;points=[];fontSize=12;" vertex="1" connectable="0" parent="8Y4_HuB13osn8gQd0_Ju-33">
          <mxGeometry x="0.2091" relative="1" as="geometry">
            <mxPoint x="-18" y="4" as="offset" />
          </mxGeometry>
        </mxCell>
        <mxCell id="8Y4_HuB13osn8gQd0_Ju-35" value="" style="endArrow=classic;html=1;rounded=0;fontSize=12;startSize=8;endSize=8;exitX=1;exitY=0.75;exitDx=0;exitDy=0;startArrow=classic;startFill=1;entryX=0;entryY=0.5;entryDx=0;entryDy=0;edgeStyle=orthogonalEdgeStyle;" edge="1" parent="1" source="8Y4_HuB13osn8gQd0_Ju-4" target="8Y4_HuB13osn8gQd0_Ju-28">
          <mxGeometry width="50" height="50" relative="1" as="geometry">
            <mxPoint x="746" y="273.93" as="sourcePoint" />
            <mxPoint x="890" y="152.93" as="targetPoint" />
            <Array as="points">
              <mxPoint x="830" y="288.93" />
              <mxPoint x="830" y="255.93" />
            </Array>
          </mxGeometry>
        </mxCell>
        <mxCell id="8Y4_HuB13osn8gQd0_Ju-36" value="UART" style="edgeLabel;html=1;align=center;verticalAlign=middle;resizable=0;points=[];fontSize=12;" vertex="1" connectable="0" parent="8Y4_HuB13osn8gQd0_Ju-35">
          <mxGeometry x="0.2091" relative="1" as="geometry">
            <mxPoint x="-40" y="26" as="offset" />
          </mxGeometry>
        </mxCell>
        <mxCell id="8Y4_HuB13osn8gQd0_Ju-37" value="" style="endArrow=classic;html=1;rounded=0;fontSize=12;startSize=8;endSize=8;entryX=0;entryY=0.5;entryDx=0;entryDy=0;startArrow=classic;startFill=1;exitX=0.25;exitY=1;exitDx=0;exitDy=0;edgeStyle=orthogonalEdgeStyle;" edge="1" parent="1" source="8Y4_HuB13osn8gQd0_Ju-3" target="8Y4_HuB13osn8gQd0_Ju-40">
          <mxGeometry width="50" height="50" relative="1" as="geometry">
            <mxPoint x="470" y="300.93285714285736" as="sourcePoint" />
            <mxPoint x="290" y="451.79" as="targetPoint" />
          </mxGeometry>
        </mxCell>
        <mxCell id="8Y4_HuB13osn8gQd0_Ju-38" value="UART" style="edgeLabel;html=1;align=center;verticalAlign=middle;resizable=0;points=[];fontSize=12;" vertex="1" connectable="0" parent="8Y4_HuB13osn8gQd0_Ju-37">
          <mxGeometry x="0.2091" relative="1" as="geometry">
            <mxPoint as="offset" />
          </mxGeometry>
        </mxCell>
        <mxCell id="8Y4_HuB13osn8gQd0_Ju-65" value="" style="endArrow=classic;html=1;rounded=0;fontSize=12;startSize=8;endSize=8;entryX=0.75;entryY=0;entryDx=0;entryDy=0;startArrow=classic;startFill=1;exitX=0.5;exitY=1;exitDx=0;exitDy=0;edgeStyle=orthogonalEdgeStyle;" edge="1" parent="1" source="8Y4_HuB13osn8gQd0_Ju-4" target="8Y4_HuB13osn8gQd0_Ju-40">
          <mxGeometry width="50" height="50" relative="1" as="geometry">
            <mxPoint x="375" y="310.93" as="sourcePoint" />
            <mxPoint x="417" y="495.93" as="targetPoint" />
            <Array as="points">
              <mxPoint x="683" y="440.93" />
              <mxPoint x="487" y="440.93" />
            </Array>
          </mxGeometry>
        </mxCell>
        <mxCell id="8Y4_HuB13osn8gQd0_Ju-66" value="UART" style="edgeLabel;html=1;align=center;verticalAlign=middle;resizable=0;points=[];fontSize=12;" vertex="1" connectable="0" parent="8Y4_HuB13osn8gQd0_Ju-65">
          <mxGeometry x="0.2091" relative="1" as="geometry">
            <mxPoint x="-82" as="offset" />
          </mxGeometry>
        </mxCell>
        <mxCell id="8Y4_HuB13osn8gQd0_Ju-67" value="MSN BOSS" style="shape=rect;dashed=0;shadow=0;html=1;whiteSpace=wrap;rotation=0;rounded=0;comic=0;labelBackgroundColor=none;strokeWidth=1;fontFamily=Verdana;fontSize=12;align=center;fillColor=#dae8fc;strokeColor=#6c8ebf;" vertex="1" parent="1">
          <mxGeometry x="-100" y="154.31" width="100" height="50" as="geometry" />
        </mxCell>
        <mxCell id="8Y4_HuB13osn8gQd0_Ju-72" value="" style="endArrow=classic;html=1;rounded=0;fontSize=12;startSize=8;endSize=8;curved=1;exitX=1;exitY=0.75;exitDx=0;exitDy=0;entryX=0;entryY=0.75;entryDx=0;entryDy=0;startArrow=classic;startFill=1;" edge="1" parent="1" source="8Y4_HuB13osn8gQd0_Ju-11" target="8Y4_HuB13osn8gQd0_Ju-3">
          <mxGeometry width="50" height="50" relative="1" as="geometry">
            <mxPoint x="230" y="290.93" as="sourcePoint" />
            <mxPoint x="420" y="290.93" as="targetPoint" />
          </mxGeometry>
        </mxCell>
        <mxCell id="8Y4_HuB13osn8gQd0_Ju-73" value="UART" style="edgeLabel;html=1;align=center;verticalAlign=middle;resizable=0;points=[];fontSize=12;" vertex="1" connectable="0" parent="8Y4_HuB13osn8gQd0_Ju-72">
          <mxGeometry x="0.2091" relative="1" as="geometry">
            <mxPoint as="offset" />
          </mxGeometry>
        </mxCell>
        <mxCell id="8Y4_HuB13osn8gQd0_Ju-74" value="" style="endArrow=classic;html=1;rounded=0;fontSize=12;startSize=8;endSize=8;exitX=1;exitY=0.5;exitDx=0;exitDy=0;entryX=0;entryY=0.5;entryDx=0;entryDy=0;startArrow=classic;startFill=1;edgeStyle=orthogonalEdgeStyle;" edge="1" parent="1" source="8Y4_HuB13osn8gQd0_Ju-67" target="8Y4_HuB13osn8gQd0_Ju-3">
          <mxGeometry width="50" height="50" relative="1" as="geometry">
            <mxPoint x="230" y="298.93" as="sourcePoint" />
            <mxPoint x="350" y="298.93" as="targetPoint" />
            <Array as="points">
              <mxPoint x="240" y="179" />
              <mxPoint x="240" y="276" />
            </Array>
          </mxGeometry>
        </mxCell>
        <mxCell id="8Y4_HuB13osn8gQd0_Ju-75" value="UART" style="edgeLabel;html=1;align=center;verticalAlign=middle;resizable=0;points=[];fontSize=12;" vertex="1" connectable="0" parent="8Y4_HuB13osn8gQd0_Ju-74">
          <mxGeometry x="0.2091" relative="1" as="geometry">
            <mxPoint x="-40" y="-12" as="offset" />
          </mxGeometry>
        </mxCell>
        <mxCell id="8Y4_HuB13osn8gQd0_Ju-76" value="" style="endArrow=classic;html=1;rounded=0;fontSize=12;startSize=8;endSize=8;exitX=1;exitY=0.25;exitDx=0;exitDy=0;entryX=0;entryY=0.5;entryDx=0;entryDy=0;startArrow=classic;startFill=1;edgeStyle=orthogonalEdgeStyle;" edge="1" parent="1" source="8Y4_HuB13osn8gQd0_Ju-67" target="8Y4_HuB13osn8gQd0_Ju-10">
          <mxGeometry width="50" height="50" relative="1" as="geometry">
            <mxPoint x="327.26" y="61" as="sourcePoint" />
            <mxPoint x="352.26" y="121" as="targetPoint" />
            <Array as="points">
              <mxPoint x="195" y="167" />
              <mxPoint x="195" y="90" />
              <mxPoint x="515" y="90" />
            </Array>
          </mxGeometry>
        </mxCell>
        <mxCell id="8Y4_HuB13osn8gQd0_Ju-77" value="SPI" style="edgeLabel;html=1;align=center;verticalAlign=middle;resizable=0;points=[];fontSize=12;" vertex="1" connectable="0" parent="8Y4_HuB13osn8gQd0_Ju-76">
          <mxGeometry x="0.0971" y="1" relative="1" as="geometry">
            <mxPoint as="offset" />
          </mxGeometry>
        </mxCell>
        <mxCell id="8Y4_HuB13osn8gQd0_Ju-78" value="CPLD" style="shape=rect;dashed=0;shadow=0;html=1;whiteSpace=wrap;rotation=0;rounded=0;comic=0;labelBackgroundColor=none;strokeWidth=1;fontFamily=Verdana;fontSize=12;align=center;fillColor=#fff2cc;strokeColor=#d6b656;" vertex="1" parent="1">
          <mxGeometry x="-100" y="67.63" width="100" height="50" as="geometry" />
        </mxCell>
        <mxCell id="8Y4_HuB13osn8gQd0_Ju-79" value="" style="endArrow=classic;html=1;rounded=0;fontSize=12;startSize=8;endSize=8;exitX=0.5;exitY=1;exitDx=0;exitDy=0;entryX=0.5;entryY=0;entryDx=0;entryDy=0;startArrow=classic;startFill=1;edgeStyle=orthogonalEdgeStyle;" edge="1" parent="1" source="8Y4_HuB13osn8gQd0_Ju-78" target="8Y4_HuB13osn8gQd0_Ju-67">
          <mxGeometry width="50" height="50" relative="1" as="geometry">
            <mxPoint x="230" y="188.93" as="sourcePoint" />
            <mxPoint x="350" y="285.93" as="targetPoint" />
          </mxGeometry>
        </mxCell>
        <mxCell id="8Y4_HuB13osn8gQd0_Ju-80" value="UART" style="edgeLabel;html=1;align=center;verticalAlign=middle;resizable=0;points=[];fontSize=12;" vertex="1" connectable="0" parent="8Y4_HuB13osn8gQd0_Ju-79">
          <mxGeometry x="0.2091" relative="1" as="geometry">
            <mxPoint x="20" as="offset" />
          </mxGeometry>
        </mxCell>
        <mxCell id="8Y4_HuB13osn8gQd0_Ju-161" value="" style="group" vertex="1" connectable="0" parent="1">
          <mxGeometry x="310" y="625.43" width="50" height="20" as="geometry" />
        </mxCell>
        <mxCell id="8Y4_HuB13osn8gQd0_Ju-40" value="RESET PIC" style="shape=rect;dashed=0;shadow=0;html=1;whiteSpace=wrap;rounded=0;comic=0;labelBackgroundColor=none;strokeWidth=1;fontFamily=Verdana;fontSize=12;align=center;fillColor=#dae8fc;strokeColor=#6c8ebf;" vertex="1" parent="1">
          <mxGeometry x="407" y="460.93" width="106" height="50" as="geometry" />
        </mxCell>
        <mxCell id="8Y4_HuB13osn8gQd0_Ju-41" value="START PIC" style="shape=rect;dashed=0;shadow=0;html=1;whiteSpace=wrap;rounded=0;comic=0;labelBackgroundColor=none;strokeWidth=1;fontFamily=Verdana;fontSize=12;align=center;fillColor=#dae8fc;strokeColor=#6c8ebf;" vertex="1" parent="1">
          <mxGeometry x="630" y="460.93" width="106" height="50" as="geometry" />
        </mxCell>
        <mxCell id="8Y4_HuB13osn8gQd0_Ju-42" value="" style="endArrow=classic;html=1;rounded=0;fontSize=12;startSize=8;endSize=8;exitX=0.5;exitY=1;exitDx=0;exitDy=0;startArrow=classic;startFill=1;entryX=0.75;entryY=1;entryDx=0;entryDy=0;edgeStyle=orthogonalEdgeStyle;" edge="1" parent="1" source="8Y4_HuB13osn8gQd0_Ju-41" target="8Y4_HuB13osn8gQd0_Ju-40">
          <mxGeometry width="50" height="50" relative="1" as="geometry">
            <mxPoint x="520" y="273.93" as="sourcePoint" />
            <mxPoint x="710" y="273.93" as="targetPoint" />
            <Array as="points">
              <mxPoint x="683" y="570.9300000000001" />
              <mxPoint x="486" y="570.9300000000001" />
              <mxPoint x="486" y="530.9300000000001" />
            </Array>
          </mxGeometry>
        </mxCell>
        <mxCell id="8Y4_HuB13osn8gQd0_Ju-43" value="UART" style="edgeLabel;html=1;align=center;verticalAlign=middle;resizable=0;points=[];fontSize=12;" vertex="1" connectable="0" parent="8Y4_HuB13osn8gQd0_Ju-42">
          <mxGeometry x="0.2091" relative="1" as="geometry">
            <mxPoint x="108" y="-10" as="offset" />
          </mxGeometry>
        </mxCell>
        <mxCell id="8Y4_HuB13osn8gQd0_Ju-52" value="" style="endArrow=none;html=1;rounded=0;fontSize=12;startSize=8;endSize=8;strokeColor=#9999FF;exitX=0;exitY=0;exitDx=0;exitDy=20;exitPerimeter=0;edgeStyle=orthogonalEdgeStyle;entryX=1;entryY=0.5;entryDx=0;entryDy=0;" edge="1" parent="1" target="8Y4_HuB13osn8gQd0_Ju-40">
          <mxGeometry width="50" height="50" relative="1" as="geometry">
            <mxPoint x="554" y="520.9300000000002" as="sourcePoint" />
            <mxPoint x="524" y="480.93" as="targetPoint" />
            <Array as="points">
              <mxPoint x="554" y="485.93" />
            </Array>
          </mxGeometry>
        </mxCell>
        <mxCell id="8Y4_HuB13osn8gQd0_Ju-56" value="" style="endArrow=none;html=1;rounded=0;fontSize=12;startSize=8;endSize=8;strokeColor=#9999FF;exitX=0;exitY=0.5;exitDx=0;exitDy=0;exitPerimeter=0;edgeStyle=orthogonalEdgeStyle;entryX=0;entryY=0.405;entryDx=0;entryDy=0;entryPerimeter=0;" edge="1" parent="1" target="8Y4_HuB13osn8gQd0_Ju-41">
          <mxGeometry width="50" height="50" relative="1" as="geometry">
            <mxPoint x="564" y="520.9300000000002" as="sourcePoint" />
            <mxPoint x="630" y="470.93" as="targetPoint" />
            <Array as="points">
              <mxPoint x="564" y="480.93" />
              <mxPoint x="630" y="480.93" />
            </Array>
          </mxGeometry>
        </mxCell>
        <mxCell id="8Y4_HuB13osn8gQd0_Ju-44" value="" style="group" vertex="1" connectable="0" parent="1">
          <mxGeometry x="530" y="510.93" width="90" height="50" as="geometry" />
        </mxCell>
        <mxCell id="8Y4_HuB13osn8gQd0_Ju-45" value="OR GATE" style="shape=rect;dashed=0;shadow=0;html=1;whiteSpace=wrap;rounded=0;comic=0;labelBackgroundColor=none;strokeWidth=1;fontFamily=Verdana;fontSize=12;align=center;" vertex="1" parent="8Y4_HuB13osn8gQd0_Ju-44">
          <mxGeometry width="90" height="50" as="geometry" />
        </mxCell>
        <mxCell id="8Y4_HuB13osn8gQd0_Ju-172" value="BURNER&lt;div&gt;CCT&lt;/div&gt;" style="shape=rect;dashed=0;shadow=0;html=1;whiteSpace=wrap;rotation=0;rounded=0;comic=0;labelBackgroundColor=none;strokeWidth=1;fontFamily=Verdana;fontSize=12;align=center;fillColor=#ffe6cc;strokeColor=#d79b00;" vertex="1" parent="1">
          <mxGeometry x="80" y="390.93" width="100" height="50" as="geometry" />
        </mxCell>
        <mxCell id="8Y4_HuB13osn8gQd0_Ju-173" value="" style="endArrow=classic;html=1;rounded=0;fontSize=12;startSize=8;endSize=8;strokeColor=#FF0000;edgeStyle=orthogonalEdgeStyle;entryX=1;entryY=0.5;entryDx=0;entryDy=0;startArrow=oval;startFill=1;jumpStyle=arc;jumpSize=6;exitX=0.378;exitY=0.008;exitDx=0;exitDy=0;exitPerimeter=0;" edge="1" parent="1" target="8Y4_HuB13osn8gQd0_Ju-172" source="8Y4_HuB13osn8gQd0_Ju-192">
          <mxGeometry relative="1" as="geometry">
            <mxPoint x="210" y="760" as="sourcePoint" />
            <mxPoint x="220" y="400.93" as="targetPoint" />
            <Array as="points">
              <mxPoint x="210" y="647" />
              <mxPoint x="210" y="416" />
            </Array>
          </mxGeometry>
        </mxCell>
        <mxCell id="8Y4_HuB13osn8gQd0_Ju-174" value="" style="endArrow=classic;html=1;rounded=0;fontSize=12;startSize=8;endSize=8;strokeColor=#FF0000;edgeStyle=orthogonalEdgeStyle;entryX=0.75;entryY=1;entryDx=0;entryDy=0;startArrow=oval;startFill=1;jumpStyle=arc;jumpSize=6;exitX=0.342;exitY=-0.001;exitDx=0;exitDy=0;exitPerimeter=0;" edge="1" parent="1" target="8Y4_HuB13osn8gQd0_Ju-175" source="8Y4_HuB13osn8gQd0_Ju-192">
          <mxGeometry relative="1" as="geometry">
            <mxPoint x="155" y="730.9300000000001" as="sourcePoint" />
            <mxPoint x="211.39999999999998" y="490.93" as="targetPoint" />
            <Array as="points">
              <mxPoint x="155" y="645" />
            </Array>
          </mxGeometry>
        </mxCell>
        <mxCell id="8Y4_HuB13osn8gQd0_Ju-175" value="UHF TRX" style="shape=rect;dashed=0;shadow=0;html=1;whiteSpace=wrap;rotation=0;rounded=0;comic=0;labelBackgroundColor=none;strokeWidth=1;fontFamily=Verdana;fontSize=12;align=center;fillColor=#ffe6cc;strokeColor=#d79b00;" vertex="1" parent="1">
          <mxGeometry x="80" y="460.93" width="100" height="50" as="geometry" />
        </mxCell>
        <mxCell id="8Y4_HuB13osn8gQd0_Ju-178" value="&lt;font style=&quot;font-size: 30px;&quot;&gt;CABUREI-3S&lt;/font&gt;" style="whiteSpace=wrap;html=1;rounded=0;shadow=0;comic=0;labelBackgroundColor=none;strokeWidth=1;fontFamily=Verdana;fontSize=12;align=left;labelPosition=right;verticalLabelPosition=bottom;verticalAlign=top;spacing=-50;spacingTop=12;spacingLeft=-21;" vertex="1" parent="1">
          <mxGeometry x="-590" y="36.389999999999986" width="190" height="219.07" as="geometry" />
        </mxCell>
        <mxCell id="8Y4_HuB13osn8gQd0_Ju-179" value="&lt;font style=&quot;font-size: 30px;&quot;&gt;RMSN&lt;/font&gt;&lt;span style=&quot;color: rgba(0, 0, 0, 0); font-family: monospace; font-size: 0px; text-wrap-mode: nowrap;&quot;&gt;%3CmxGraphModel%3E%3Croot%3E%3CmxCell%20id%3D%220%22%2F%3E%3CmxCell%20id%3D%221%22%20parent%3D%220%22%2F%3E%3CmxCell%20id%3D%222%22%20value%3D%22%26lt%3Bfont%20style%3D%26quot%3Bfont-size%3A%2030px%3B%26quot%3B%26gt%3BCABUREI%26lt%3B%2Ffont%26gt%3B%22%20style%3D%22whiteSpace%3Dwrap%3Bhtml%3D1%3Brounded%3D0%3Bshadow%3D0%3Bcomic%3D0%3BlabelBackgroundColor%3Dnone%3BstrokeWidth%3D1%3BfontFamily%3DVerdana%3BfontSize%3D12%3Balign%3Dleft%3BlabelPosition%3Dright%3BverticalLabelPosition%3Dbottom%3BverticalAlign%3Dtop%3Bspacing%3D-50%3BspacingTop%3D12%3BspacingLeft%3D-21%3B%22%20vertex%3D%221%22%20parent%3D%221%22%3E%3CmxGeometry%20x%3D%22-590%22%20y%3D%2236.389999999999986%22%20width%3D%22190%22%20height%3D%22219.07%22%20as%3D%22geometry%22%2F%3E%3C%2FmxCell%3E%3C%2Froot%3E%3C%2FmxGraphModel%3E&lt;/span&gt;" style="whiteSpace=wrap;html=1;rounded=0;shadow=0;comic=0;labelBackgroundColor=none;strokeWidth=1;fontFamily=Verdana;fontSize=12;align=left;labelPosition=right;verticalLabelPosition=bottom;verticalAlign=top;spacing=-50;spacingTop=12;spacingLeft=-21;" vertex="1" parent="1">
          <mxGeometry x="-590" y="300.92999999999995" width="190" height="219.07" as="geometry" />
        </mxCell>
        <mxCell id="8Y4_HuB13osn8gQd0_Ju-180" value="&lt;span style=&quot;font-size: 30px;&quot;&gt;TUM&lt;/span&gt;" style="whiteSpace=wrap;html=1;rounded=0;shadow=0;comic=0;labelBackgroundColor=none;strokeWidth=1;fontFamily=Verdana;fontSize=12;align=left;labelPosition=right;verticalLabelPosition=bottom;verticalAlign=top;spacing=-50;spacingTop=12;spacingLeft=-21;" vertex="1" parent="1">
          <mxGeometry x="-590" y="560.93" width="190" height="219.07" as="geometry" />
        </mxCell>
        <mxCell id="8Y4_HuB13osn8gQd0_Ju-181" value="" style="endArrow=classic;html=1;rounded=0;fontSize=12;startSize=8;endSize=8;exitX=0;exitY=0.25;exitDx=0;exitDy=0;entryX=0.991;entryY=0.203;entryDx=0;entryDy=0;startArrow=classic;startFill=1;edgeStyle=orthogonalEdgeStyle;entryPerimeter=0;" edge="1" parent="1" source="8Y4_HuB13osn8gQd0_Ju-78" target="8Y4_HuB13osn8gQd0_Ju-178">
          <mxGeometry width="50" height="50" relative="1" as="geometry">
            <mxPoint x="-190" y="124.63" as="sourcePoint" />
            <mxPoint x="-190" y="160.63" as="targetPoint" />
            <Array as="points">
              <mxPoint x="-190" y="80" />
            </Array>
          </mxGeometry>
        </mxCell>
        <mxCell id="8Y4_HuB13osn8gQd0_Ju-182" value="UART" style="edgeLabel;html=1;align=center;verticalAlign=middle;resizable=0;points=[];fontSize=12;" vertex="1" connectable="0" parent="8Y4_HuB13osn8gQd0_Ju-181">
          <mxGeometry x="0.2091" relative="1" as="geometry">
            <mxPoint x="20" as="offset" />
          </mxGeometry>
        </mxCell>
        <mxCell id="8Y4_HuB13osn8gQd0_Ju-183" value="" style="endArrow=classic;html=1;rounded=0;fontSize=12;startSize=8;endSize=8;entryX=1;entryY=0.25;entryDx=0;entryDy=0;startArrow=classic;startFill=1;edgeStyle=orthogonalEdgeStyle;" edge="1" parent="1" source="8Y4_HuB13osn8gQd0_Ju-78" target="8Y4_HuB13osn8gQd0_Ju-180">
          <mxGeometry width="50" height="50" relative="1" as="geometry">
            <mxPoint x="-90" y="90" as="sourcePoint" />
            <mxPoint x="-392" y="91" as="targetPoint" />
            <Array as="points">
              <mxPoint x="-180" y="90" />
              <mxPoint x="-180" y="616" />
            </Array>
          </mxGeometry>
        </mxCell>
        <mxCell id="8Y4_HuB13osn8gQd0_Ju-184" value="UART" style="edgeLabel;html=1;align=center;verticalAlign=middle;resizable=0;points=[];fontSize=12;" vertex="1" connectable="0" parent="8Y4_HuB13osn8gQd0_Ju-183">
          <mxGeometry x="0.2091" relative="1" as="geometry">
            <mxPoint x="20" as="offset" />
          </mxGeometry>
        </mxCell>
        <mxCell id="8Y4_HuB13osn8gQd0_Ju-185" value="" style="endArrow=classic;html=1;rounded=0;fontSize=12;startSize=8;endSize=8;exitX=0;exitY=0.75;exitDx=0;exitDy=0;entryX=1;entryY=0.25;entryDx=0;entryDy=0;startArrow=classic;startFill=1;edgeStyle=orthogonalEdgeStyle;" edge="1" parent="1" source="8Y4_HuB13osn8gQd0_Ju-78" target="8Y4_HuB13osn8gQd0_Ju-179">
          <mxGeometry width="50" height="50" relative="1" as="geometry">
            <mxPoint x="101" y="470" as="sourcePoint" />
            <mxPoint x="-201" y="471" as="targetPoint" />
            <Array as="points">
              <mxPoint x="-220" y="105" />
              <mxPoint x="-220" y="356" />
            </Array>
          </mxGeometry>
        </mxCell>
        <mxCell id="8Y4_HuB13osn8gQd0_Ju-186" value="UART" style="edgeLabel;html=1;align=center;verticalAlign=middle;resizable=0;points=[];fontSize=12;" vertex="1" connectable="0" parent="8Y4_HuB13osn8gQd0_Ju-185">
          <mxGeometry x="0.2091" relative="1" as="geometry">
            <mxPoint x="20" as="offset" />
          </mxGeometry>
        </mxCell>
        <mxCell id="8Y4_HuB13osn8gQd0_Ju-187" value="" style="triangle;whiteSpace=wrap;html=1;rotation=90;" vertex="1" parent="1">
          <mxGeometry x="-685" y="30" width="60" height="80" as="geometry" />
        </mxCell>
        <mxCell id="8Y4_HuB13osn8gQd0_Ju-188" value="&amp;nbsp;&lt;div&gt;TRX&lt;/div&gt;" style="shape=rect;dashed=0;shadow=0;html=1;whiteSpace=wrap;rotation=0;rounded=0;comic=0;labelBackgroundColor=none;strokeWidth=1;fontFamily=Verdana;fontSize=12;align=center;fillColor=#bac8d3;strokeColor=#23445d;" vertex="1" parent="1">
          <mxGeometry x="-540" y="91" width="100" height="50" as="geometry" />
        </mxCell>
        <mxCell id="8Y4_HuB13osn8gQd0_Ju-189" value="" style="endArrow=none;html=1;rounded=0;fontSize=12;startSize=8;endSize=8;entryX=1;entryY=0.5;entryDx=0;entryDy=0;startArrow=classic;startFill=1;edgeStyle=orthogonalEdgeStyle;exitX=0;exitY=0.5;exitDx=0;exitDy=0;endFill=0;" edge="1" parent="1" source="8Y4_HuB13osn8gQd0_Ju-188" target="8Y4_HuB13osn8gQd0_Ju-187">
          <mxGeometry width="50" height="50" relative="1" as="geometry">
            <mxPoint x="-1290" y="242.93" as="sourcePoint" />
            <mxPoint x="-1100" y="242.93" as="targetPoint" />
          </mxGeometry>
        </mxCell>
        <mxCell id="8Y4_HuB13osn8gQd0_Ju-190" value="VHF Antenna" style="edgeLabel;html=1;align=center;verticalAlign=middle;resizable=0;points=[];fontSize=12;" vertex="1" connectable="0" parent="8Y4_HuB13osn8gQd0_Ju-189">
          <mxGeometry x="0.1029" relative="1" as="geometry">
            <mxPoint x="10" y="12" as="offset" />
          </mxGeometry>
        </mxCell>
        <mxCell id="8Y4_HuB13osn8gQd0_Ju-192" value="&lt;span style=&quot;font-size: 30px;&quot;&gt;EPS&lt;/span&gt;" style="whiteSpace=wrap;html=1;rounded=0;shadow=0;comic=0;labelBackgroundColor=none;strokeWidth=1;fontFamily=Verdana;fontSize=12;align=left;labelPosition=right;verticalLabelPosition=bottom;verticalAlign=top;spacing=-50;spacingTop=12;spacingLeft=-21;" vertex="1" parent="1">
          <mxGeometry x="-310" y="645.43" width="1370" height="134.57" as="geometry" />
        </mxCell>
        <mxCell id="8Y4_HuB13osn8gQd0_Ju-193" value="FAB PIC" style="shape=rect;dashed=0;shadow=0;html=1;whiteSpace=wrap;rounded=0;comic=0;labelBackgroundColor=none;strokeWidth=1;fontFamily=Verdana;fontSize=12;align=center;fillColor=#dae8fc;strokeColor=#6c8ebf;" vertex="1" parent="1">
          <mxGeometry x="790" y="687.71" width="106" height="50" as="geometry" />
        </mxCell>
        <mxCell id="8Y4_HuB13osn8gQd0_Ju-194" value="RPi" style="shape=rect;dashed=0;shadow=0;html=1;whiteSpace=wrap;rounded=0;comic=0;labelBackgroundColor=none;strokeWidth=1;fontFamily=Verdana;fontSize=12;align=center;fillColor=#dae8fc;strokeColor=#6c8ebf;" vertex="1" parent="1">
          <mxGeometry x="-570" y="320.00000000000006" width="106" height="50" as="geometry" />
        </mxCell>
        <mxCell id="8Y4_HuB13osn8gQd0_Ju-195" value="CAMERA" style="shape=rect;dashed=0;shadow=0;html=1;whiteSpace=wrap;rotation=0;rounded=0;comic=0;labelBackgroundColor=none;strokeWidth=1;fontFamily=Verdana;fontSize=12;align=center;fillColor=#ffe6cc;strokeColor=#d79b00;" vertex="1" parent="1">
          <mxGeometry x="-725" y="320" width="100" height="50" as="geometry" />
        </mxCell>
        <mxCell id="8Y4_HuB13osn8gQd0_Ju-196" value="" style="endArrow=classic;html=1;rounded=0;fontSize=12;startSize=8;endSize=8;startArrow=classic;startFill=1;edgeStyle=orthogonalEdgeStyle;" edge="1" parent="1">
          <mxGeometry width="50" height="50" relative="1" as="geometry">
            <mxPoint x="-570" y="350" as="sourcePoint" />
            <mxPoint x="-625" y="350" as="targetPoint" />
            <Array as="points">
              <mxPoint x="-570" y="350" />
              <mxPoint x="-625" y="350" />
            </Array>
          </mxGeometry>
        </mxCell>
        <mxCell id="8Y4_HuB13osn8gQd0_Ju-197" value="UART" style="edgeLabel;html=1;align=center;verticalAlign=middle;resizable=0;points=[];fontSize=12;" vertex="1" connectable="0" parent="8Y4_HuB13osn8gQd0_Ju-196">
          <mxGeometry x="0.2091" relative="1" as="geometry">
            <mxPoint x="3" y="-16" as="offset" />
          </mxGeometry>
        </mxCell>
        <mxCell id="8Y4_HuB13osn8gQd0_Ju-198" value="&lt;span style=&quot;font-size: 30px;&quot;&gt;SOLAR PANEL&lt;/span&gt;" style="whiteSpace=wrap;html=1;rounded=0;shadow=0;comic=0;labelBackgroundColor=none;strokeWidth=1;fontFamily=Verdana;fontSize=12;align=left;labelPosition=right;verticalLabelPosition=bottom;verticalAlign=top;spacing=-50;spacingTop=12;spacingLeft=-21;" vertex="1" parent="1">
          <mxGeometry x="840" y="334.25" width="220" height="90" as="geometry" />
        </mxCell>
        <mxCell id="8Y4_HuB13osn8gQd0_Ju-199" value="&lt;span style=&quot;font-size: 30px;&quot;&gt;BATTERY&lt;/span&gt;" style="whiteSpace=wrap;html=1;rounded=0;shadow=0;comic=0;labelBackgroundColor=none;strokeWidth=1;fontFamily=Verdana;fontSize=12;align=left;labelPosition=right;verticalLabelPosition=bottom;verticalAlign=top;spacing=-50;spacingTop=12;spacingLeft=-21;" vertex="1" parent="1">
          <mxGeometry x="840" y="460.93" width="245" height="75.43" as="geometry" />
        </mxCell>
      </root>
    </mxGraphModel>
  </diagram>
</mxfile>
